<svg id="Group_91358" data-name="Group 91358" xmlns="http://www.w3.org/2000/svg" width="51.975" height="51.975" viewBox="0 0 51.975 51.975">
  <g id="Group_91359" data-name="Group 91359">
    <rect id="Rectangle_154199" data-name="Rectangle 154199" width="51.975" height="51.975" rx="25.987" fill="#1d1d1d"/>
    <path id="Path_163669" data-name="Path 163669" d="M-12.341-17.666A2.074,2.074,0,0,1-13-19.149a2.149,2.149,0,0,1,.576-1.4,2.149,2.149,0,0,1,1.4-.576,2.073,2.073,0,0,1,1.482.659H4.623a2.073,2.073,0,0,1,1.482-.659,2.149,2.149,0,0,1,1.4.576,2.149,2.149,0,0,1,.576,1.4,2.074,2.074,0,0,1-.659,1.482V-6.137a2.074,2.074,0,0,1,.659,1.482,2.149,2.149,0,0,1-.576,1.4,2.149,2.149,0,0,1-1.4.576,2.073,2.073,0,0,1-1.482-.659H-9.541a2.073,2.073,0,0,1-1.482.659,2.149,2.149,0,0,1-1.4-.576A2.149,2.149,0,0,1-13-4.655a2.074,2.074,0,0,1,.659-1.482Zm3.17-.824A1.978,1.978,0,0,1-10.365-17.3V-6.508A1.978,1.978,0,0,1-9.171-5.314H4.252A1.978,1.978,0,0,1,5.446-6.508V-17.3A1.978,1.978,0,0,1,4.252-18.49Zm.124,2.635a1.282,1.282,0,0,1,.371-.947,1.282,1.282,0,0,1,.947-.371h5.27a1.282,1.282,0,0,1,.947.371,1.282,1.282,0,0,1,.371.947V-11.9a1.282,1.282,0,0,1-.371.947,1.282,1.282,0,0,1-.947.371H-7.73a1.282,1.282,0,0,1-.947-.371,1.282,1.282,0,0,1-.371-.947Zm5.27,6.588h1.318a2.661,2.661,0,0,0,1.853-.782A2.661,2.661,0,0,0,.176-11.9v-1.318H2.811a1.282,1.282,0,0,1,.947.371,1.282,1.282,0,0,1,.371.947v3.953A1.282,1.282,0,0,1,3.758-7a1.282,1.282,0,0,1-.947.371h-5.27A1.282,1.282,0,0,1-3.406-7a1.282,1.282,0,0,1-.371-.947Z" transform="translate(28 38.125)" fill="#d9e6ff"/>
  </g>
</svg>
