<svg id="dimensions" xmlns="http://www.w3.org/2000/svg" width="17.01" height="19.064" viewBox="0 0 17.01 19.064">
  <path id="Path_163721" data-name="Path 163721" d="M34.934,169.762l-6.087-3.308a.865.865,0,0,0-1.279.76v7.675a.867.867,0,0,0,.438.752l6.088,3.461a.865.865,0,0,0,1.293-.752v-7.827A.865.865,0,0,0,34.934,169.762Z" transform="translate(-27.568 -160.152)" fill="#2c2c2c"/>
  <path id="Path_163722" data-name="Path 163722" d="M69.232,4.305a.862.862,0,0,0-.467-.767L62.127.1a.866.866,0,0,0-.8,0L54.785,3.541a.865.865,0,0,0,0,1.531l6.541,3.463a.865.865,0,0,0,.8,0l6.638-3.463a.862.862,0,0,0,.465-.768Z" transform="translate(-53.326 0)" fill="#2c2c2c"/>
  <path id="Path_163723" data-name="Path 163723" d="M281.766,166.469a.858.858,0,0,0-.855-.017l-6.088,3.308a.865.865,0,0,0-.452.76v7.827a.864.864,0,0,0,1.293.752l6.088-3.461a.867.867,0,0,0,.438-.752v-7.674A.858.858,0,0,0,281.766,166.469Z" transform="translate(-265.179 -160.15)" fill="#2c2c2c"/>
</svg>
