<svg xmlns="http://www.w3.org/2000/svg" width="19" height="19" viewBox="0 0 19 19">
  <path id="Path_164065" data-name="Path 164065" d="M6.25-9.375a8.093,8.093,0,0,1-1.562,4.8L8.648-.648A1.3,1.3,0,0,1,9,.25a1.3,1.3,0,0,1-.352.9,1.324,1.324,0,0,1-1.8,0L2.93-2.812a8.093,8.093,0,0,1-4.8,1.563A8.069,8.069,0,0,1-7.617-3.633,8.069,8.069,0,0,1-10-9.375a8.069,8.069,0,0,1,2.383-5.742A8.069,8.069,0,0,1-1.875-17.5a8.069,8.069,0,0,1,5.742,2.383A8.069,8.069,0,0,1,6.25-9.375ZM-1.875-3.75A5.539,5.539,0,0,0,.938-4.492a5.638,5.638,0,0,0,2.07-2.07A5.679,5.679,0,0,0,3.75-9.375a5.679,5.679,0,0,0-.742-2.812,5.638,5.638,0,0,0-2.07-2.07A5.539,5.539,0,0,0-1.875-15a5.539,5.539,0,0,0-2.812.742,5.638,5.638,0,0,0-2.07,2.07A5.679,5.679,0,0,0-7.5-9.375a5.679,5.679,0,0,0,.742,2.813,5.638,5.638,0,0,0,2.07,2.07A5.539,5.539,0,0,0-1.875-3.75Z" transform="translate(10 17.5)" fill="#fff"/>
</svg>
