<svg xmlns="http://www.w3.org/2000/svg" width="22.272" height="17.03" viewBox="0 0 22.272 17.03">
  <g id="Group_91570" data-name="Group 91570" transform="translate(-43.999 -114.163)">
    <g id="Group_91570-2" data-name="Group 91570" transform="translate(5034 -1260.668)">
      <path id="Path_163728" data-name="Path 163728" d="M23.2,13.269A3.834,3.834,0,0,0,27.032,17.1a3.445,3.445,0,0,0,2.1-.651c.036,0,.036-.036.072-.036A3.847,3.847,0,0,0,27.032,9.4,3.866,3.866,0,0,0,23.2,13.269Z" transform="translate(-5005.608 1365.431)" fill="#2c2c2c"/>
      <path id="Path_163729" data-name="Path 163729" d="M28.492,37.48a6.947,6.947,0,0,0-4.628-6.58,4.553,4.553,0,0,1-4.736,0A6.982,6.982,0,0,0,14.5,37.48c0,1.735,3.616,2.676,7.014,2.676S28.492,39.216,28.492,37.48Z" transform="translate(-5000.053 1351.705)" fill="#2c2c2c"/>
      <path id="Path_163730" data-name="Path 163730" d="M8.6,31.616a1.924,1.924,0,0,0,2.1,1.916,7.392,7.392,0,0,1,1.7-2.386,1.929,1.929,0,0,0-3.8.47Z" transform="translate(-4996.286 1352.471)" fill="#2c2c2c"/>
      <path id="Path_163731" data-name="Path 163731" d="M2.2,43.3a.677.677,0,0,0,.289.506,6.327,6.327,0,0,0,3.941.759,2.316,2.316,0,0,1-1.085-1.88,7.959,7.959,0,0,1,.4-2.459A3.259,3.259,0,0,1,4.586,39.9,3.572,3.572,0,0,0,2.2,43.3Z" transform="translate(-4992.201 1345.959)" fill="#2c2c2c"/>
      <path id="Path_163732" data-name="Path 163732" d="M56.394,44.8a3.64,3.64,0,0,0-2.35-3.4,2.243,2.243,0,0,1-1.157.325,7.786,7.786,0,0,1,.4,2.459,2.308,2.308,0,0,1-1.085,1.88c1.338.072,4.194-.217,4.194-1.265Z" transform="translate(-5024.123 1345.001)" fill="#2c2c2c"/>
      <path id="Path_163733" data-name="Path 163733" d="M50.544,29.7A1.862,1.862,0,0,0,48.7,31.146a7.166,7.166,0,0,1,1.7,2.422,1.9,1.9,0,0,0,2.061-1.916A1.937,1.937,0,0,0,50.544,29.7Z" transform="translate(-5021.888 1352.471)" fill="#2c2c2c"/>
    </g>
  </g>
</svg>
