<svg xmlns="http://www.w3.org/2000/svg" width="14.875" height="17" viewBox="0 0 14.875 17">
  <path id="Path_163640" data-name="Path 163640" d="M5.678-13.148l-.631.93H9.861l-.631-.93A.287.287,0,0,0,9-13.281H5.877a.287.287,0,0,0-.232.133Zm4.881-.9,1.2,1.826h2.324a.794.794,0,0,1,.8.8.794.794,0,0,1-.8.8h-.266V-.531a2.756,2.756,0,0,1-.764,1.893,2.756,2.756,0,0,1-1.893.764H3.719a2.756,2.756,0,0,1-1.893-.764A2.756,2.756,0,0,1,1.063-.531V-10.625H.8a.794.794,0,0,1-.8-.8.794.794,0,0,1,.8-.8H3.121L4.35-14.045a1.862,1.862,0,0,1,1.527-.83H9a1.862,1.862,0,0,1,1.527.83Zm-7.9,3.42V-.531a1.034,1.034,0,0,0,.3.764,1.034,1.034,0,0,0,.764.3h7.438a1.034,1.034,0,0,0,.764-.3,1.034,1.034,0,0,0,.3-.764V-10.625ZM5.313-8.5v6.906a.511.511,0,0,1-.531.531.511.511,0,0,1-.531-.531V-8.5a.511.511,0,0,1,.531-.531A.511.511,0,0,1,5.313-8.5Zm2.656,0v6.906a.511.511,0,0,1-.531.531.511.511,0,0,1-.531-.531V-8.5a.511.511,0,0,1,.531-.531A.511.511,0,0,1,7.969-8.5Zm2.656,0v6.906a.511.511,0,0,1-.531.531.511.511,0,0,1-.531-.531V-8.5a.511.511,0,0,1,.531-.531A.511.511,0,0,1,10.625-8.5Z" transform="translate(0 14.875)" fill="#2c2c2c"/>
</svg>
