<svg xmlns="http://www.w3.org/2000/svg" width="17" height="17" viewBox="0 0 17 17">
  <path id="Path_163639" data-name="Path 163639" d="M9.9-12.8h3.074a.563.563,0,0,1,.569.379l1.176,2.656H10.929ZM7.1-12.8,6.071-9.768H2.277l1.176-2.656a.608.608,0,0,1,.569-.379ZM6.071-7.946v1.821a1.182,1.182,0,0,0,.342.873,1.182,1.182,0,0,0,.873.342H9.714a1.182,1.182,0,0,0,.873-.342,1.182,1.182,0,0,0,.342-.873V-7.946h4.25V-.054a.585.585,0,0,1-.607.607H2.429a.585.585,0,0,1-.607-.607V-7.946Zm9.145-5.237a2.472,2.472,0,0,0-2.239-1.442H4.022a2.472,2.472,0,0,0-2.239,1.442L.228-9.616A2.175,2.175,0,0,0,0-8.629V-.054A2.453,2.453,0,0,0,.721,1.654a2.453,2.453,0,0,0,1.708.721H14.571a2.453,2.453,0,0,0,1.708-.721A2.453,2.453,0,0,0,17-.054V-8.629a2.539,2.539,0,0,0-.19-.987Z" transform="translate(0 14.625)" fill="#2c2c2c"/>
</svg>
